<svg xmlns="http://www.w3.org/2000/svg" width="135" height="40"><g fill="none"><path fill="#A6A6A6" d="M124.25 0H10.756c-.414 0-.823 0-1.235.002-.346.002-.688.008-1.037.013-.758.008-1.513.067-2.26.176A8.208 8.208 0 004.08.818a7.294 7.294 0 00-1.826 1.18 6.352 6.352 0 00-1.33 1.62A6.093 6.093 0 00.22 5.521a11.56 11.56 0 00-.202 2.002c-.01.307-.011.615-.017.921V31.56c.006.31.007.61.017.921.01.671.077 1.34.202 2.002a6.08 6.08 0 00.705 1.905c.342.598.791 1.143 1.33 1.614.533.477 1.15.875 1.826 1.179a8.25 8.25 0 002.144.63c.748.11 1.503.168 2.26.177.35.007.692.011 1.038.011.412.002.821.002 1.235.002h113.492c.406 0 .818 0 1.223-.002.344 0 .697-.004 1.04-.01.756-.01 1.51-.068 2.257-.178a8.379 8.379 0 002.152-.63A7.111 7.111 0 00132.746 38a6.498 6.498 0 001.333-1.614c.34-.6.576-1.242.698-1.905.126-.661.196-1.33.21-2.002.004-.31.004-.61.004-.921.009-.364.009-.725.009-1.094V9.536c0-.366 0-.73-.009-1.092 0-.306 0-.614-.004-.92a12.019 12.019 0 00-.21-2.003 6.104 6.104 0 00-.698-1.903c-.696-1.203-1.8-2.182-3.158-2.8a8.336 8.336 0 00-2.152-.627c-.746-.11-1.5-.169-2.257-.176-.343-.005-.696-.011-1.04-.013C125.067 0 124.655 0 124.25 0z"></path><path fill="#000" d="M9.433 39.125c-.345 0-.681-.004-1.023-.01a16.168 16.168 0 01-2.113-.164 7.27 7.27 0 01-1.873-.548 6.139 6.139 0 01-1.579-1.016 5.408 5.408 0 01-1.153-1.397 5.274 5.274 0 01-.614-1.657c-.117-.62-.18-1.247-.188-1.875-.008-.21-.017-.913-.017-.913v-23.1s.01-.692.017-.895c.008-.628.07-1.253.187-1.872a5.304 5.304 0 01.614-1.662c.295-.518.682-.99 1.148-1.398.464-.412 1-.757 1.585-1.023a7.198 7.198 0 011.869-.544C6.994.95 7.703.895 8.413.887l1.02-.012h116.174l1.033.013c.704.007 1.406.061 2.1.162a7.342 7.342 0 011.89.548c1.172.535 2.127 1.381 2.73 2.42.294.52.498 1.076.604 1.649.118.624.183 1.255.197 1.887.003.283.003.588.003.89.009.375.009.732.009 1.092v20.929c0 .363 0 .718-.009 1.075 0 .325 0 .623-.004.93-.014.62-.078 1.24-.194 1.853a5.285 5.285 0 01-.61 1.67c-.298.513-.685.98-1.148 1.386a6.143 6.143 0 01-1.582 1.022 7.245 7.245 0 01-1.886.55c-.698.101-1.405.156-2.113.163-.33.007-.677.011-1.014.011l-1.225.002-114.955-.002z"></path><g fill="#FFF"><path d="M32.769 20.3a4.949 4.949 0 012.356-4.151 5.066 5.066 0 00-3.99-2.158c-1.68-.176-3.308 1.005-4.164 1.005-.872 0-2.19-.988-3.608-.958a5.315 5.315 0 00-4.473 2.728c-1.934 3.348-.491 8.269 1.361 10.976.927 1.325 2.01 2.805 3.428 2.753 1.387-.058 1.905-.885 3.58-.885 1.658 0 2.144.885 3.59.852 1.489-.025 2.426-1.332 3.32-2.67a10.962 10.962 0 001.52-3.092 4.782 4.782 0 01-2.92-4.4zm-2.732-8.09a4.872 4.872 0 001.115-3.49 4.957 4.957 0 00-3.208 1.66A4.636 4.636 0 0026.8 13.74a4.1 4.1 0 003.237-1.53zM50.302 27.14H45.57l-1.137 3.356h-2.005l4.484-12.418h2.083l4.483 12.418h-2.039l-1.136-3.356zm-4.243-1.55h3.752l-1.85-5.446h-.051l-1.85 5.447zm17.1.38c0 2.813-1.505 4.62-3.778 4.62a3.07 3.07 0 01-2.848-1.583h-.043v4.484H54.63V21.442h1.8v1.506h.033a3.212 3.212 0 012.883-1.6c2.298 0 3.813 1.816 3.813 4.622zm-1.91 0c0-1.833-.947-3.038-2.392-3.038-1.42 0-2.375 1.23-2.375 3.038 0 1.824.955 3.046 2.375 3.046 1.445 0 2.393-1.197 2.393-3.046zm11.876 0c0 2.813-1.506 4.62-3.779 4.62a3.07 3.07 0 01-2.848-1.583h-.043v4.484h-1.859V21.442h1.799v1.506h.034a3.212 3.212 0 012.883-1.6c2.298 0 3.813 1.816 3.813 4.622zm-1.91 0c0-1.833-.948-3.038-2.393-3.038-1.42 0-2.375 1.23-2.375 3.038 0 1.824.955 3.046 2.375 3.046 1.445 0 2.392-1.197 2.392-3.046zm8.495 1.066c.138 1.232 1.334 2.04 2.97 2.04 1.566 0 2.693-.808 2.693-1.919 0-.964-.68-1.54-2.29-1.936l-1.609-.388c-2.28-.55-3.339-1.617-3.339-3.348 0-2.142 1.867-3.614 4.519-3.614 2.624 0 4.423 1.472 4.483 3.614h-1.876c-.112-1.239-1.136-1.987-2.634-1.987-1.497 0-2.521.757-2.521 1.858 0 .878.654 1.395 2.255 1.79l1.368.336c2.548.603 3.606 1.626 3.606 3.443 0 2.323-1.85 3.778-4.793 3.778-2.754 0-4.614-1.42-4.734-3.667h1.902zM91.346 19.3v2.142h1.722v1.472h-1.722v4.991c0 .776.345 1.137 1.102 1.137.204-.004.408-.018.611-.043v1.463c-.34.063-.686.092-1.032.086-1.833 0-2.548-.689-2.548-2.445v-5.189h-1.316v-1.472h1.316V19.3h1.867zm2.719 6.67c0-2.849 1.678-4.639 4.294-4.639 2.625 0 4.295 1.79 4.295 4.639 0 2.856-1.661 4.638-4.295 4.638-2.633 0-4.294-1.782-4.294-4.638zm6.695 0c0-1.954-.895-3.108-2.401-3.108-1.506 0-2.4 1.162-2.4 3.108 0 1.962.894 3.106 2.4 3.106 1.506 0 2.401-1.144 2.401-3.106zm3.426-4.528h1.773v1.541h.043a2.16 2.16 0 012.177-1.635c.214-.001.428.022.637.069v1.738a2.598 2.598 0 00-.835-.112 1.873 1.873 0 00-1.937 2.083v5.37h-1.858v-9.054zm13.198 6.395c-.25 1.643-1.85 2.771-3.898 2.771-2.634 0-4.269-1.764-4.269-4.595 0-2.84 1.644-4.682 4.19-4.682 2.506 0 4.08 1.72 4.08 4.466v.637h-6.394v.112a2.358 2.358 0 002.436 2.564 2.048 2.048 0 002.09-1.273h1.765zm-6.282-2.702h4.526a2.177 2.177 0 00-2.22-2.298 2.292 2.292 0 00-2.306 2.298zM45.826 8.731a2.64 2.64 0 012.808 2.965c0 1.906-1.03 3.002-2.808 3.002h-2.155V8.73h2.155zm-1.228 5.123h1.125a1.876 1.876 0 001.967-2.146 1.881 1.881 0 00-1.967-2.134h-1.125v4.28zm5.083-1.41a2.133 2.133 0 114.247 0 2.134 2.134 0 11-4.247 0zm3.333 0c0-.976-.439-1.547-1.208-1.547-.773 0-1.207.571-1.207 1.547 0 .984.434 1.55 1.207 1.55.77 0 1.208-.57 1.208-1.55zM59.573 14.698h-.922l-.93-3.317h-.071l-.926 3.317h-.913l-1.242-4.503h.902l.806 3.436h.067l.926-3.436h.852l.926 3.436h.07l.803-3.436h.889zM61.854 10.195h.855v.715h.066c.231-.527.771-.849 1.344-.802a1.465 1.465 0 011.559 1.675v2.915h-.889v-2.692c0-.724-.314-1.084-.972-1.084a1.033 1.033 0 00-1.075 1.141v2.635h-.888v-4.503zM67.094 8.437h.888v6.261h-.888zM69.218 12.444a2.133 2.133 0 114.247 0 2.134 2.134 0 11-4.247 0zm3.333 0c0-.976-.439-1.547-1.208-1.547-.773 0-1.207.571-1.207 1.547 0 .984.434 1.55 1.207 1.55.77 0 1.208-.57 1.208-1.55zm1.85.98c0-.81.603-1.278 1.675-1.344l1.22-.07v-.389c0-.475-.315-.744-.922-.744-.497 0-.84.182-.939.5h-.86c.09-.773.818-1.27 1.84-1.27 1.128 0 1.765.563 1.765 1.514v3.077h-.855v-.633h-.07c-.291.462-.808.732-1.353.707a1.36 1.36 0 01-1.501-1.348zm2.894-.384v-.377l-1.1.07c-.62.042-.9.253-.9.65 0 .405.351.64.834.64a1.062 1.062 0 001.166-.983zm2.053-.596c0-1.423.732-2.324 1.87-2.324a1.484 1.484 0 011.38.79h.067V8.437h.888v6.26h-.851v-.71h-.07a1.563 1.563 0 01-1.415.785c-1.145 0-1.869-.901-1.869-2.328zm.918 0c0 .955.45 1.53 1.203 1.53.75 0 1.212-.583 1.212-1.526 0-.938-.468-1.53-1.212-1.53-.748 0-1.203.58-1.203 1.526zm6.964 0a2.133 2.133 0 114.247 0 2.134 2.134 0 11-4.247 0zm3.333 0c0-.976-.438-1.547-1.208-1.547-.772 0-1.207.571-1.207 1.547 0 .984.435 1.55 1.207 1.55.77 0 1.208-.57 1.208-1.55zm2.106-2.25h.856v.716h.066c.231-.527.77-.849 1.344-.802a1.465 1.465 0 011.559 1.675v2.915h-.889v-2.692c0-.724-.314-1.084-.972-1.084a1.033 1.033 0 00-1.075 1.141v2.635h-.889v-4.503zm8.846-1.12v1.141h.976v.749h-.976v2.315c0 .472.195.679.637.679.113 0 .226-.008.339-.021v.74c-.16.029-.322.044-.484.046-.988 0-1.381-.348-1.381-1.216v-2.543h-.715v-.749h.715V9.074h.89zm2.19-.637h.88v2.481h.07a1.386 1.386 0 011.374-.806 1.483 1.483 0 011.55 1.679v2.907h-.889V12.01c0-.72-.335-1.084-.963-1.084a1.052 1.052 0 00-1.134 1.142v2.63h-.888V8.437zm9.056 5.045a1.828 1.828 0 01-1.95 1.303 2.045 2.045 0 01-2.081-2.325 2.077 2.077 0 012.076-2.352c1.253 0 2.009.856 2.009 2.27v.31h-3.18v.05a1.19 1.19 0 001.2 1.29 1.08 1.08 0 001.07-.546h.856zm-3.126-1.451h2.275a1.086 1.086 0 00-1.109-1.167 1.152 1.152 0 00-1.166 1.167z"></path></g></g></svg>